<svg id="Capa_1" enable-background="new 0 0 512 512" height="512" viewBox="0 0 512 512" width="512" xmlns="http://www.w3.org/2000/svg"><g><path d="m296.521 289.053h102.558c4.143 0 7.5-3.358 7.5-7.5s-3.357-7.5-7.5-7.5h-102.558c-4.143 0-7.5 3.358-7.5 7.5s3.358 7.5 7.5 7.5z"/><path d="m296.521 336.624h102.558c4.143 0 7.5-3.358 7.5-7.5s-3.357-7.5-7.5-7.5h-102.558c-4.143 0-7.5 3.358-7.5 7.5s3.358 7.5 7.5 7.5z"/><path d="m296.521 384.196h102.558c4.143 0 7.5-3.358 7.5-7.5s-3.357-7.5-7.5-7.5h-102.558c-4.143 0-7.5 3.358-7.5 7.5s3.358 7.5 7.5 7.5z"/><path d="m214.657 104.721h-102.558c-4.142 0-7.5 3.358-7.5 7.5s3.358 7.5 7.5 7.5h102.558c4.142 0 7.5-3.358 7.5-7.5s-3.358-7.5-7.5-7.5z"/><path d="m222.157 159.792c0-4.142-3.358-7.5-7.5-7.5h-102.558c-4.142 0-7.5 3.358-7.5 7.5s3.358 7.5 7.5 7.5h102.558c4.142 0 7.5-3.357 7.5-7.5z"/><path d="m112.099 199.864c-4.142 0-7.5 3.358-7.5 7.5s3.358 7.5 7.5 7.5h51.279c4.142 0 7.5-3.358 7.5-7.5s-3.358-7.5-7.5-7.5z"/><path d="m393.495 205.782h-70.498c5.162-13.411 7.783-27.525 7.783-42.11v-4.786c0-65.279-53.161-118.387-118.505-118.387h-41.018c-4.142 0-7.5 3.358-7.5 7.5s3.358 7.5 7.5 7.5h41.018c57.073 0 103.505 46.379 103.505 103.387v4.786c0 14.69-3.043 28.832-9.032 42.11h-7.052c-44.627 0-83.566 24.775-103.774 61.276h-77.417l-22.629-.001c-3.048-.008-4.188.279-6.971 1.709l-36.61 18.799 2.046-37.963c.399-2.785-.624-5.447-2.785-7.23-23.232-19.782-36.556-48.463-36.556-78.7v-4.786c0-57.008 46.432-103.386 103.505-103.386h18.114c4.142 0 7.5-3.358 7.5-7.5s-3.358-7.5-7.5-7.5h-18.114c-65.344 0-118.505 53.107-118.505 118.386v4.786c0 33.489 14.249 65.298 39.216 87.83l-2.381 44.198c-.292 5.016 2.188 7.636 3.693 8.75 1.222.906 3.022 1.77 5.442 1.77 1.275 0 2.723-.24 4.348-.839.284-.104.562-.227.831-.365l44.612-22.908c.034-.017.066-.034.098-.05l93.086.001c-5.004 13.091-7.754 27.285-7.754 42.11v4.813c0 65.263 53.161 118.358 118.505 118.358h13.465c4.143 0 7.5-3.358 7.5-7.5s-3.357-7.5-7.5-7.5h-13.465c-57.073 0-103.505-46.366-103.505-103.358v-4.813c0-16.283 3.793-31.695 10.535-45.411.354-.523.636-1.096.85-1.701 17.182-33.384 52.025-56.275 92.12-56.275h93.799c57.073 0 103.505 46.379 103.505 103.387v4.813c0 30.232-13.357 58.926-36.646 78.725-.042.036-.084.072-.125.109-2.058 1.829-2.99 4.388-2.597 7.094l2.066 37.955-36.348-18.641-.227-.119c-2.761-1.457-3.946-1.765-6.893-1.765-.041 0-.083 0-.124 0l-68.309.001c-4.143 0-7.5 3.358-7.5 7.5s3.357 7.5 7.5 7.5h45.695 22.571c.02.01.04.021.061.032l44.698 22.928c.277.143.563.267.856.374 1.62.59 3.062.826 4.332.826 2.414 0 4.208-.854 5.425-1.749 1.494-1.099 3.965-3.685 3.729-8.713l-2.41-44.256c24.988-22.545 39.246-54.343 39.246-87.801v-4.813c0-65.279-53.161-118.387-118.505-118.387z"/></g></svg>